<mxfile host="app.diagrams.net" modified="2022-04-11T15:46:59.982Z" agent="5.0 (Windows NT 10.0; Win64; x64) AppleWebKit/537.36 (KHTML, like Gecko) Chrome/100.0.4896.75 Safari/537.36" etag="NmDnzwO-xkm-sfvL-mOj" version="17.4.0" type="github">
  <diagram id="SctEK2AL3j0u5t4MnJmv" name="Page-1">
    <mxGraphModel dx="1108" dy="426" grid="1" gridSize="10" guides="1" tooltips="1" connect="1" arrows="1" fold="1" page="1" pageScale="1" pageWidth="827" pageHeight="1169" math="0" shadow="0">
      <root>
        <mxCell id="0" />
        <mxCell id="1" parent="0" />
        <mxCell id="_vMp9WdMYwQ7bH-pkNWu-1" value="FileService" style="swimlane;fontStyle=1;align=center;verticalAlign=top;childLayout=stackLayout;horizontal=1;startSize=26;horizontalStack=0;resizeParent=1;resizeParentMax=0;resizeLast=0;collapsible=1;marginBottom=0;" parent="1" vertex="1">
          <mxGeometry x="595" y="390" width="130" height="164" as="geometry" />
        </mxCell>
        <mxCell id="_vMp9WdMYwQ7bH-pkNWu-2" value=" " style="text;strokeColor=none;fillColor=none;align=left;verticalAlign=top;spacingLeft=4;spacingRight=4;overflow=hidden;rotatable=0;points=[[0,0.5],[1,0.5]];portConstraint=eastwest;" parent="_vMp9WdMYwQ7bH-pkNWu-1" vertex="1">
          <mxGeometry y="26" width="130" height="26" as="geometry" />
        </mxCell>
        <mxCell id="_vMp9WdMYwQ7bH-pkNWu-3" value="" style="line;strokeWidth=1;fillColor=none;align=left;verticalAlign=middle;spacingTop=-1;spacingLeft=3;spacingRight=3;rotatable=0;labelPosition=right;points=[];portConstraint=eastwest;" parent="_vMp9WdMYwQ7bH-pkNWu-1" vertex="1">
          <mxGeometry y="52" width="130" height="8" as="geometry" />
        </mxCell>
        <mxCell id="_vMp9WdMYwQ7bH-pkNWu-4" value="+ shareFile" style="text;strokeColor=none;fillColor=none;align=left;verticalAlign=top;spacingLeft=4;spacingRight=4;overflow=hidden;rotatable=0;points=[[0,0.5],[1,0.5]];portConstraint=eastwest;" parent="_vMp9WdMYwQ7bH-pkNWu-1" vertex="1">
          <mxGeometry y="60" width="130" height="26" as="geometry" />
        </mxCell>
        <mxCell id="_vMp9WdMYwQ7bH-pkNWu-5" value="+ generateShareLink" style="text;strokeColor=none;fillColor=none;align=left;verticalAlign=top;spacingLeft=4;spacingRight=4;overflow=hidden;rotatable=0;points=[[0,0.5],[1,0.5]];portConstraint=eastwest;" parent="_vMp9WdMYwQ7bH-pkNWu-1" vertex="1">
          <mxGeometry y="86" width="130" height="26" as="geometry" />
        </mxCell>
        <mxCell id="_vMp9WdMYwQ7bH-pkNWu-6" value="+ uploadFile" style="text;strokeColor=none;fillColor=none;align=left;verticalAlign=top;spacingLeft=4;spacingRight=4;overflow=hidden;rotatable=0;points=[[0,0.5],[1,0.5]];portConstraint=eastwest;" parent="_vMp9WdMYwQ7bH-pkNWu-1" vertex="1">
          <mxGeometry y="112" width="130" height="26" as="geometry" />
        </mxCell>
        <mxCell id="_vMp9WdMYwQ7bH-pkNWu-7" value="+ downloadFile" style="text;strokeColor=none;fillColor=none;align=left;verticalAlign=top;spacingLeft=4;spacingRight=4;overflow=hidden;rotatable=0;points=[[0,0.5],[1,0.5]];portConstraint=eastwest;" parent="_vMp9WdMYwQ7bH-pkNWu-1" vertex="1">
          <mxGeometry y="138" width="130" height="26" as="geometry" />
        </mxCell>
        <mxCell id="_vMp9WdMYwQ7bH-pkNWu-8" value="UploadInfoService" style="swimlane;fontStyle=1;align=center;verticalAlign=top;childLayout=stackLayout;horizontal=1;startSize=26;horizontalStack=0;resizeParent=1;resizeParentMax=0;resizeLast=0;collapsible=1;marginBottom=0;" parent="1" vertex="1">
          <mxGeometry x="810" y="390" width="140" height="112" as="geometry" />
        </mxCell>
        <mxCell id="_vMp9WdMYwQ7bH-pkNWu-9" value=" " style="text;strokeColor=none;fillColor=none;align=left;verticalAlign=top;spacingLeft=4;spacingRight=4;overflow=hidden;rotatable=0;points=[[0,0.5],[1,0.5]];portConstraint=eastwest;" parent="_vMp9WdMYwQ7bH-pkNWu-8" vertex="1">
          <mxGeometry y="26" width="140" height="26" as="geometry" />
        </mxCell>
        <mxCell id="_vMp9WdMYwQ7bH-pkNWu-10" value="" style="line;strokeWidth=1;fillColor=none;align=left;verticalAlign=middle;spacingTop=-1;spacingLeft=3;spacingRight=3;rotatable=0;labelPosition=right;points=[];portConstraint=eastwest;" parent="_vMp9WdMYwQ7bH-pkNWu-8" vertex="1">
          <mxGeometry y="52" width="140" height="8" as="geometry" />
        </mxCell>
        <mxCell id="_vMp9WdMYwQ7bH-pkNWu-11" value="+ modifyPrivateLevel" style="text;strokeColor=none;fillColor=none;align=left;verticalAlign=top;spacingLeft=4;spacingRight=4;overflow=hidden;rotatable=0;points=[[0,0.5],[1,0.5]];portConstraint=eastwest;" parent="_vMp9WdMYwQ7bH-pkNWu-8" vertex="1">
          <mxGeometry y="60" width="140" height="26" as="geometry" />
        </mxCell>
        <mxCell id="_vMp9WdMYwQ7bH-pkNWu-12" value="+ deleteFile" style="text;strokeColor=none;fillColor=none;align=left;verticalAlign=top;spacingLeft=4;spacingRight=4;overflow=hidden;rotatable=0;points=[[0,0.5],[1,0.5]];portConstraint=eastwest;" parent="_vMp9WdMYwQ7bH-pkNWu-8" vertex="1">
          <mxGeometry y="86" width="140" height="26" as="geometry" />
        </mxCell>
        <mxCell id="_vMp9WdMYwQ7bH-pkNWu-15" value="UserService" style="swimlane;fontStyle=1;align=center;verticalAlign=top;childLayout=stackLayout;horizontal=1;startSize=26;horizontalStack=0;resizeParent=1;resizeParentMax=0;resizeLast=0;collapsible=1;marginBottom=0;" parent="1" vertex="1">
          <mxGeometry x="360" y="338" width="140" height="216" as="geometry" />
        </mxCell>
        <mxCell id="_vMp9WdMYwQ7bH-pkNWu-16" value=" " style="text;strokeColor=none;fillColor=none;align=left;verticalAlign=top;spacingLeft=4;spacingRight=4;overflow=hidden;rotatable=0;points=[[0,0.5],[1,0.5]];portConstraint=eastwest;" parent="_vMp9WdMYwQ7bH-pkNWu-15" vertex="1">
          <mxGeometry y="26" width="140" height="26" as="geometry" />
        </mxCell>
        <mxCell id="_vMp9WdMYwQ7bH-pkNWu-17" value="" style="line;strokeWidth=1;fillColor=none;align=left;verticalAlign=middle;spacingTop=-1;spacingLeft=3;spacingRight=3;rotatable=0;labelPosition=right;points=[];portConstraint=eastwest;" parent="_vMp9WdMYwQ7bH-pkNWu-15" vertex="1">
          <mxGeometry y="52" width="140" height="8" as="geometry" />
        </mxCell>
        <mxCell id="_vMp9WdMYwQ7bH-pkNWu-18" value="+ register" style="text;strokeColor=none;fillColor=none;align=left;verticalAlign=top;spacingLeft=4;spacingRight=4;overflow=hidden;rotatable=0;points=[[0,0.5],[1,0.5]];portConstraint=eastwest;" parent="_vMp9WdMYwQ7bH-pkNWu-15" vertex="1">
          <mxGeometry y="60" width="140" height="26" as="geometry" />
        </mxCell>
        <mxCell id="_vMp9WdMYwQ7bH-pkNWu-19" value="+ login" style="text;strokeColor=none;fillColor=none;align=left;verticalAlign=top;spacingLeft=4;spacingRight=4;overflow=hidden;rotatable=0;points=[[0,0.5],[1,0.5]];portConstraint=eastwest;" parent="_vMp9WdMYwQ7bH-pkNWu-15" vertex="1">
          <mxGeometry y="86" width="140" height="26" as="geometry" />
        </mxCell>
        <mxCell id="_vMp9WdMYwQ7bH-pkNWu-20" value="+ getNowUserDetail" style="text;strokeColor=none;fillColor=none;align=left;verticalAlign=top;spacingLeft=4;spacingRight=4;overflow=hidden;rotatable=0;points=[[0,0.5],[1,0.5]];portConstraint=eastwest;" parent="_vMp9WdMYwQ7bH-pkNWu-15" vertex="1">
          <mxGeometry y="112" width="140" height="26" as="geometry" />
        </mxCell>
        <mxCell id="_vMp9WdMYwQ7bH-pkNWu-21" value="+ modifyUserInfo" style="text;strokeColor=none;fillColor=none;align=left;verticalAlign=top;spacingLeft=4;spacingRight=4;overflow=hidden;rotatable=0;points=[[0,0.5],[1,0.5]];portConstraint=eastwest;" parent="_vMp9WdMYwQ7bH-pkNWu-15" vertex="1">
          <mxGeometry y="138" width="140" height="26" as="geometry" />
        </mxCell>
        <mxCell id="_vMp9WdMYwQ7bH-pkNWu-22" value="+ addUser" style="text;strokeColor=none;fillColor=none;align=left;verticalAlign=top;spacingLeft=4;spacingRight=4;overflow=hidden;rotatable=0;points=[[0,0.5],[1,0.5]];portConstraint=eastwest;" parent="_vMp9WdMYwQ7bH-pkNWu-15" vertex="1">
          <mxGeometry y="164" width="140" height="26" as="geometry" />
        </mxCell>
        <mxCell id="_vMp9WdMYwQ7bH-pkNWu-23" value="+ getUserDetailByCode" style="text;strokeColor=none;fillColor=none;align=left;verticalAlign=top;spacingLeft=4;spacingRight=4;overflow=hidden;rotatable=0;points=[[0,0.5],[1,0.5]];portConstraint=eastwest;" parent="_vMp9WdMYwQ7bH-pkNWu-15" vertex="1">
          <mxGeometry y="190" width="140" height="26" as="geometry" />
        </mxCell>
        <mxCell id="_vMp9WdMYwQ7bH-pkNWu-24" value="DepartmentService" style="swimlane;fontStyle=1;align=center;verticalAlign=top;childLayout=stackLayout;horizontal=1;startSize=26;horizontalStack=0;resizeParent=1;resizeParentMax=0;resizeLast=0;collapsible=1;marginBottom=0;" parent="1" vertex="1">
          <mxGeometry x="365" y="150" width="130" height="112" as="geometry" />
        </mxCell>
        <mxCell id="_vMp9WdMYwQ7bH-pkNWu-25" value=" " style="text;strokeColor=none;fillColor=none;align=left;verticalAlign=top;spacingLeft=4;spacingRight=4;overflow=hidden;rotatable=0;points=[[0,0.5],[1,0.5]];portConstraint=eastwest;" parent="_vMp9WdMYwQ7bH-pkNWu-24" vertex="1">
          <mxGeometry y="26" width="130" height="26" as="geometry" />
        </mxCell>
        <mxCell id="_vMp9WdMYwQ7bH-pkNWu-26" value="" style="line;strokeWidth=1;fillColor=none;align=left;verticalAlign=middle;spacingTop=-1;spacingLeft=3;spacingRight=3;rotatable=0;labelPosition=right;points=[];portConstraint=eastwest;" parent="_vMp9WdMYwQ7bH-pkNWu-24" vertex="1">
          <mxGeometry y="52" width="130" height="8" as="geometry" />
        </mxCell>
        <mxCell id="_vMp9WdMYwQ7bH-pkNWu-27" value="+ getDeptByCondition" style="text;strokeColor=none;fillColor=none;align=left;verticalAlign=top;spacingLeft=4;spacingRight=4;overflow=hidden;rotatable=0;points=[[0,0.5],[1,0.5]];portConstraint=eastwest;" parent="_vMp9WdMYwQ7bH-pkNWu-24" vertex="1">
          <mxGeometry y="60" width="130" height="26" as="geometry" />
        </mxCell>
        <mxCell id="_vMp9WdMYwQ7bH-pkNWu-28" value="+ addDept" style="text;strokeColor=none;fillColor=none;align=left;verticalAlign=top;spacingLeft=4;spacingRight=4;overflow=hidden;rotatable=0;points=[[0,0.5],[1,0.5]];portConstraint=eastwest;" parent="_vMp9WdMYwQ7bH-pkNWu-24" vertex="1">
          <mxGeometry y="86" width="130" height="26" as="geometry" />
        </mxCell>
        <mxCell id="_vMp9WdMYwQ7bH-pkNWu-92" value="Use" style="endArrow=open;endSize=12;dashed=1;html=1;rounded=0;exitX=0.5;exitY=0;exitDx=0;exitDy=0;entryX=0.5;entryY=1;entryDx=0;entryDy=0;entryPerimeter=0;" parent="1" source="_vMp9WdMYwQ7bH-pkNWu-15" target="_vMp9WdMYwQ7bH-pkNWu-28" edge="1">
          <mxGeometry width="160" relative="1" as="geometry">
            <mxPoint x="440" y="610" as="sourcePoint" />
            <mxPoint x="440" y="270" as="targetPoint" />
          </mxGeometry>
        </mxCell>
        <mxCell id="_vMp9WdMYwQ7bH-pkNWu-93" value="Use" style="endArrow=open;endSize=12;dashed=1;html=1;rounded=0;entryX=1;entryY=0.5;entryDx=0;entryDy=0;exitX=0;exitY=0.5;exitDx=0;exitDy=0;" parent="1" source="_vMp9WdMYwQ7bH-pkNWu-4" target="_vMp9WdMYwQ7bH-pkNWu-20" edge="1">
          <mxGeometry width="160" relative="1" as="geometry">
            <mxPoint x="560" y="530" as="sourcePoint" />
            <mxPoint x="450" y="316.98800000000006" as="targetPoint" />
          </mxGeometry>
        </mxCell>
        <mxCell id="_vMp9WdMYwQ7bH-pkNWu-94" value="Use" style="endArrow=open;endSize=12;dashed=1;html=1;rounded=0;exitX=1;exitY=0.5;exitDx=0;exitDy=0;entryX=0;entryY=0.5;entryDx=0;entryDy=0;" parent="1" source="_vMp9WdMYwQ7bH-pkNWu-4" target="_vMp9WdMYwQ7bH-pkNWu-11" edge="1">
          <mxGeometry width="160" relative="1" as="geometry">
            <mxPoint x="410" y="410" as="sourcePoint" />
            <mxPoint x="410" y="326.98800000000006" as="targetPoint" />
          </mxGeometry>
        </mxCell>
        <mxCell id="_vMp9WdMYwQ7bH-pkNWu-95" value="UserController" style="swimlane;fontStyle=1;align=center;verticalAlign=top;childLayout=stackLayout;horizontal=1;startSize=26;horizontalStack=0;resizeParent=1;resizeParentMax=0;resizeLast=0;collapsible=1;marginBottom=0;" parent="1" vertex="1">
          <mxGeometry x="590" y="98" width="140" height="216" as="geometry" />
        </mxCell>
        <mxCell id="_vMp9WdMYwQ7bH-pkNWu-96" value=" " style="text;strokeColor=none;fillColor=none;align=left;verticalAlign=top;spacingLeft=4;spacingRight=4;overflow=hidden;rotatable=0;points=[[0,0.5],[1,0.5]];portConstraint=eastwest;" parent="_vMp9WdMYwQ7bH-pkNWu-95" vertex="1">
          <mxGeometry y="26" width="140" height="26" as="geometry" />
        </mxCell>
        <mxCell id="_vMp9WdMYwQ7bH-pkNWu-97" value="" style="line;strokeWidth=1;fillColor=none;align=left;verticalAlign=middle;spacingTop=-1;spacingLeft=3;spacingRight=3;rotatable=0;labelPosition=right;points=[];portConstraint=eastwest;" parent="_vMp9WdMYwQ7bH-pkNWu-95" vertex="1">
          <mxGeometry y="52" width="140" height="8" as="geometry" />
        </mxCell>
        <mxCell id="_vMp9WdMYwQ7bH-pkNWu-98" value="+ register" style="text;strokeColor=none;fillColor=none;align=left;verticalAlign=top;spacingLeft=4;spacingRight=4;overflow=hidden;rotatable=0;points=[[0,0.5],[1,0.5]];portConstraint=eastwest;" parent="_vMp9WdMYwQ7bH-pkNWu-95" vertex="1">
          <mxGeometry y="60" width="140" height="26" as="geometry" />
        </mxCell>
        <mxCell id="_vMp9WdMYwQ7bH-pkNWu-99" value="+ login" style="text;strokeColor=none;fillColor=none;align=left;verticalAlign=top;spacingLeft=4;spacingRight=4;overflow=hidden;rotatable=0;points=[[0,0.5],[1,0.5]];portConstraint=eastwest;" parent="_vMp9WdMYwQ7bH-pkNWu-95" vertex="1">
          <mxGeometry y="86" width="140" height="26" as="geometry" />
        </mxCell>
        <mxCell id="_vMp9WdMYwQ7bH-pkNWu-100" value="+ getNowUserDetail" style="text;strokeColor=none;fillColor=none;align=left;verticalAlign=top;spacingLeft=4;spacingRight=4;overflow=hidden;rotatable=0;points=[[0,0.5],[1,0.5]];portConstraint=eastwest;" parent="_vMp9WdMYwQ7bH-pkNWu-95" vertex="1">
          <mxGeometry y="112" width="140" height="26" as="geometry" />
        </mxCell>
        <mxCell id="_vMp9WdMYwQ7bH-pkNWu-101" value="+ modifyUserInfo" style="text;strokeColor=none;fillColor=none;align=left;verticalAlign=top;spacingLeft=4;spacingRight=4;overflow=hidden;rotatable=0;points=[[0,0.5],[1,0.5]];portConstraint=eastwest;" parent="_vMp9WdMYwQ7bH-pkNWu-95" vertex="1">
          <mxGeometry y="138" width="140" height="26" as="geometry" />
        </mxCell>
        <mxCell id="_vMp9WdMYwQ7bH-pkNWu-102" value="+ addUser" style="text;strokeColor=none;fillColor=none;align=left;verticalAlign=top;spacingLeft=4;spacingRight=4;overflow=hidden;rotatable=0;points=[[0,0.5],[1,0.5]];portConstraint=eastwest;" parent="_vMp9WdMYwQ7bH-pkNWu-95" vertex="1">
          <mxGeometry y="164" width="140" height="26" as="geometry" />
        </mxCell>
        <mxCell id="_vMp9WdMYwQ7bH-pkNWu-103" value="+ getUserDetailByCode" style="text;strokeColor=none;fillColor=none;align=left;verticalAlign=top;spacingLeft=4;spacingRight=4;overflow=hidden;rotatable=0;points=[[0,0.5],[1,0.5]];portConstraint=eastwest;" parent="_vMp9WdMYwQ7bH-pkNWu-95" vertex="1">
          <mxGeometry y="190" width="140" height="26" as="geometry" />
        </mxCell>
        <mxCell id="_vMp9WdMYwQ7bH-pkNWu-104" value="FileController" style="swimlane;fontStyle=1;align=center;verticalAlign=top;childLayout=stackLayout;horizontal=1;startSize=26;horizontalStack=0;resizeParent=1;resizeParentMax=0;resizeLast=0;collapsible=1;marginBottom=0;" parent="1" vertex="1">
          <mxGeometry x="815" y="80" width="130" height="216" as="geometry" />
        </mxCell>
        <mxCell id="_vMp9WdMYwQ7bH-pkNWu-105" value=" " style="text;strokeColor=none;fillColor=none;align=left;verticalAlign=top;spacingLeft=4;spacingRight=4;overflow=hidden;rotatable=0;points=[[0,0.5],[1,0.5]];portConstraint=eastwest;" parent="_vMp9WdMYwQ7bH-pkNWu-104" vertex="1">
          <mxGeometry y="26" width="130" height="26" as="geometry" />
        </mxCell>
        <mxCell id="_vMp9WdMYwQ7bH-pkNWu-106" value="" style="line;strokeWidth=1;fillColor=none;align=left;verticalAlign=middle;spacingTop=-1;spacingLeft=3;spacingRight=3;rotatable=0;labelPosition=right;points=[];portConstraint=eastwest;" parent="_vMp9WdMYwQ7bH-pkNWu-104" vertex="1">
          <mxGeometry y="52" width="130" height="8" as="geometry" />
        </mxCell>
        <mxCell id="_vMp9WdMYwQ7bH-pkNWu-107" value="+ shareFile" style="text;strokeColor=none;fillColor=none;align=left;verticalAlign=top;spacingLeft=4;spacingRight=4;overflow=hidden;rotatable=0;points=[[0,0.5],[1,0.5]];portConstraint=eastwest;" parent="_vMp9WdMYwQ7bH-pkNWu-104" vertex="1">
          <mxGeometry y="60" width="130" height="26" as="geometry" />
        </mxCell>
        <mxCell id="_vMp9WdMYwQ7bH-pkNWu-108" value="+ generateShareLink" style="text;strokeColor=none;fillColor=none;align=left;verticalAlign=top;spacingLeft=4;spacingRight=4;overflow=hidden;rotatable=0;points=[[0,0.5],[1,0.5]];portConstraint=eastwest;" parent="_vMp9WdMYwQ7bH-pkNWu-104" vertex="1">
          <mxGeometry y="86" width="130" height="26" as="geometry" />
        </mxCell>
        <mxCell id="_vMp9WdMYwQ7bH-pkNWu-109" value="+ uploadFile" style="text;strokeColor=none;fillColor=none;align=left;verticalAlign=top;spacingLeft=4;spacingRight=4;overflow=hidden;rotatable=0;points=[[0,0.5],[1,0.5]];portConstraint=eastwest;" parent="_vMp9WdMYwQ7bH-pkNWu-104" vertex="1">
          <mxGeometry y="112" width="130" height="26" as="geometry" />
        </mxCell>
        <mxCell id="_vMp9WdMYwQ7bH-pkNWu-111" value="+ deleteFile" style="text;strokeColor=none;fillColor=none;align=left;verticalAlign=top;spacingLeft=4;spacingRight=4;overflow=hidden;rotatable=0;points=[[0,0.5],[1,0.5]];portConstraint=eastwest;" parent="_vMp9WdMYwQ7bH-pkNWu-104" vertex="1">
          <mxGeometry y="138" width="130" height="26" as="geometry" />
        </mxCell>
        <mxCell id="_vMp9WdMYwQ7bH-pkNWu-112" value="+ modifyPrivateLevel" style="text;strokeColor=none;fillColor=none;align=left;verticalAlign=top;spacingLeft=4;spacingRight=4;overflow=hidden;rotatable=0;points=[[0,0.5],[1,0.5]];portConstraint=eastwest;" parent="_vMp9WdMYwQ7bH-pkNWu-104" vertex="1">
          <mxGeometry y="164" width="130" height="26" as="geometry" />
        </mxCell>
        <mxCell id="_vMp9WdMYwQ7bH-pkNWu-110" value="+ downloadFile" style="text;strokeColor=none;fillColor=none;align=left;verticalAlign=top;spacingLeft=4;spacingRight=4;overflow=hidden;rotatable=0;points=[[0,0.5],[1,0.5]];portConstraint=eastwest;" parent="_vMp9WdMYwQ7bH-pkNWu-104" vertex="1">
          <mxGeometry y="190" width="130" height="26" as="geometry" />
        </mxCell>
        <mxCell id="_vMp9WdMYwQ7bH-pkNWu-113" value="Use" style="endArrow=open;endSize=12;dashed=1;html=1;rounded=0;exitX=0;exitY=0.5;exitDx=0;exitDy=0;entryX=1;entryY=0.5;entryDx=0;entryDy=0;" parent="1" source="_vMp9WdMYwQ7bH-pkNWu-100" target="_vMp9WdMYwQ7bH-pkNWu-27" edge="1">
          <mxGeometry width="160" relative="1" as="geometry">
            <mxPoint x="440" y="348" as="sourcePoint" />
            <mxPoint x="440" y="272" as="targetPoint" />
          </mxGeometry>
        </mxCell>
        <mxCell id="_vMp9WdMYwQ7bH-pkNWu-114" value="Use" style="endArrow=open;endSize=12;dashed=1;html=1;rounded=0;exitX=0.014;exitY=0.808;exitDx=0;exitDy=0;entryX=1;entryY=0.5;entryDx=0;entryDy=0;exitPerimeter=0;" parent="1" source="_vMp9WdMYwQ7bH-pkNWu-103" target="_vMp9WdMYwQ7bH-pkNWu-20" edge="1">
          <mxGeometry width="160" relative="1" as="geometry">
            <mxPoint x="600" y="233" as="sourcePoint" />
            <mxPoint x="505" y="233" as="targetPoint" />
          </mxGeometry>
        </mxCell>
        <mxCell id="_vMp9WdMYwQ7bH-pkNWu-115" value="Use" style="endArrow=open;endSize=12;dashed=1;html=1;rounded=0;exitX=0;exitY=0.885;exitDx=0;exitDy=0;entryX=1;entryY=0;entryDx=0;entryDy=0;exitPerimeter=0;" parent="1" source="_vMp9WdMYwQ7bH-pkNWu-110" target="_vMp9WdMYwQ7bH-pkNWu-1" edge="1">
          <mxGeometry width="160" relative="1" as="geometry">
            <mxPoint x="610" y="243" as="sourcePoint" />
            <mxPoint x="515" y="243" as="targetPoint" />
          </mxGeometry>
        </mxCell>
        <mxCell id="_vMp9WdMYwQ7bH-pkNWu-116" value="Use" style="endArrow=open;endSize=12;dashed=1;html=1;rounded=0;exitX=0.454;exitY=1.154;exitDx=0;exitDy=0;entryX=0.457;entryY=0;entryDx=0;entryDy=0;entryPerimeter=0;exitPerimeter=0;" parent="1" source="_vMp9WdMYwQ7bH-pkNWu-110" target="_vMp9WdMYwQ7bH-pkNWu-8" edge="1">
          <mxGeometry width="160" relative="1" as="geometry">
            <mxPoint x="620" y="253" as="sourcePoint" />
            <mxPoint x="525" y="253" as="targetPoint" />
          </mxGeometry>
        </mxCell>
      </root>
    </mxGraphModel>
  </diagram>
</mxfile>
